<svg xmlns="http://www.w3.org/2000/svg" version="1.1" xmlns:xlink="http://www.w3.org/1999/xlink" xmlns:svgjs="http://svgjs.dev/svgjs" width="2000" height="2000" viewBox="0 0 2000 2000"><g transform="matrix(1,0,0,1,-0.28443113772425477,-0.28443113772459583)"><svg viewBox="0 0 334 334" data-background-color="#ffffff" preserveAspectRatio="xMidYMid meet" height="2000" width="2000" xmlns="http://www.w3.org/2000/svg" xmlns:xlink="http://www.w3.org/1999/xlink"><g id="tight-bounds" transform="matrix(1,0,0,1,0.04749999999998522,0.04750000000001364)"><svg viewBox="0 0 333.90454557049503 333.90454557049503" height="333.90454557049503" width="333.90454557049503"><g><svg></svg></g><g><svg viewBox="0 0 333.90454557049503 333.90454557049503" height="333.90454557049503" width="333.90454557049503"><g><path d="M0 166.952c0-92.205 74.747-166.952 166.952-166.952 92.205 0 166.952 74.747 166.953 166.952 0 92.205-74.747 166.952-166.953 166.953-92.205 0-166.952-74.747-166.952-166.953zM166.952 323.399c86.403 0 156.446-70.043 156.447-156.447 0-86.403-70.043-156.446-156.447-156.446-86.403 0-156.446 70.043-156.446 156.446 0 86.403 70.043 156.446 156.446 156.447z" data-fill-palette-color="tertiary" fill="#8d021f" stroke="transparent"></path><ellipse rx="160.27418187383762" ry="160.27418187383762" cx="166.95227278524752" cy="166.95227278524752" fill="#8d021f" stroke="transparent" stroke-width="0" fill-opacity="1" data-fill-palette-color="tertiary"></ellipse></g><g transform="matrix(1,0,0,1,130.89506510195378,71.17305217166896)"><svg viewBox="0 0 72.1144153665875 191.55844122715712" height="191.55844122715712" width="72.1144153665875"><g><svg viewBox="0 0 72.1144153665875 191.55844122715712" height="191.55844122715712" width="72.1144153665875"><g><svg viewBox="0 0 118.57797574367733 314.9801892154665" height="191.55844122715712" width="72.1144153665875"><g transform="matrix(1,0,0,1,0,123.42174798830938)"><svg viewBox="0 0 118.57797574367733 191.55844122715712" height="191.55844122715712" width="118.57797574367733"><g id="textblocktransform"><svg viewBox="0 0 118.57797574367733 191.55844122715712" height="191.55844122715712" width="118.57797574367733" id="textblock"><g><svg viewBox="0 0 118.57797574367733 191.55844122715712" height="191.55844122715712" width="118.57797574367733"><g transform="matrix(1,0,0,1,0,0)"><svg width="118.57797574367733" viewBox="-16.55 -49.5 48.5 78.35000000000001" height="191.55844122715712" data-palette-color="#ffffff"><path d="M31.95-46.8Q31.95-45.65 30.9-45.05L30.9-45.05Q29.9-45.9 28.5-46.35 27.1-46.8 25.65-46.8L25.65-46.8Q22.75-46.8 20.95-44.58 19.15-42.35 17.45-36.8 15.75-31.25 13.05-19.35L13.05-19.35 23.2-19.5Q23.3-19.35 23.3-19.05L23.3-19.05Q23.3-18.5 22.73-18.05 22.15-17.6 21.6-17.6L21.6-17.6 20.5-17.6Q14.95-17.5 12.6-17.4L12.6-17.4Q10.5-7.9 8.75-0.65L8.75-0.65Q8.55-0.05 8.43 0.5 8.3 1.05 8.2 1.5L8.2 1.5Q5.95 10.45 3.85 16.23 1.75 22-1.15 25.43-4.05 28.85-7.95 28.85L-7.95 28.85Q-11.1 28.85-13.03 26.83-14.95 24.8-15.75 22.38-16.55 19.95-16.55 18.7L-16.55 18.7Q-16.55 17.85-16.25 17.2-15.95 16.55-15.35 15.6L-15.35 15.6Q-14.75 14.8-14.5 14.3L-14.5 14.3Q-13.55 20.3-11.98 23.08-10.4 25.85-7.15 25.85L-7.15 25.85Q-4.5 25.85-2.5 23.85-0.5 21.85 1.25 17.32 3 12.8 4.9 4.9L4.9 4.9Q6.65-2.5 8.85-12.1L8.85-12.1 10.05-17.3Q6.35-17.2 4.67-16.9 3-16.6 2.18-15.83 1.35-15.05 0.7-13.3L0.7-13.3 0.05-13.5Q0.6-16.35 1.25-17.45 1.9-18.55 3.15-18.8L3.15-18.8Q4.95-19.2 10.5-19.35L10.5-19.35Q12.85-29.7 14.28-34.65 15.7-39.6 17.45-42.63 19.2-45.65 22.05-47.55L22.05-47.55Q25.05-49.5 27.9-49.5L27.9-49.5Q29.75-49.5 30.85-48.75 31.95-48 31.95-46.8L31.95-46.8Z" opacity="1" transform="matrix(1,0,0,1,0,0)" fill="#ffffff" class="wordmark-text-0" data-fill-palette-color="quaternary" id="text-0"></path></svg></g></svg></g></svg></g></svg></g><g transform="matrix(1,0,0,1,28.144482542761814,0)"><svg viewBox="0 0 62.2890106581537 78.19939741716703" height="78.19939741716703" width="62.2890106581537"><g><svg xmlns="http://www.w3.org/2000/svg" xmlns:xlink="http://www.w3.org/1999/xlink" version="1.0" x="0" y="0" viewBox="15.6850586 3.6717529 71.9501343 90.3282471" enable-background="new 0 0 100 100" xml:space="preserve" height="78.19939741716703" width="62.2890106581537" class="icon-icon-0" data-fill-palette-color="quaternary" id="icon-0"><g fill="#ffffff" data-fill-palette-color="quaternary"><polygon points="81.2773438,56.8994141 60.3235474,48.8267822 60.2514038,41.4863281 64.0084229,32.3755493 66.7858276,31.4420776    67.6157227,23.4489746 65.3502197,22.3515015 65.9616089,14.3040771 57.7007446,3.6717529 45.6195679,3.6717529    42.0075684,8.3206787 37.3587036,14.3040771 37.9700317,22.3515015 35.7045898,23.4489746 36.5344849,31.4420776    39.3118286,32.3755493 43.0689087,41.4863892 42.9967651,48.8267822 22.0429688,56.8994141 15.6850586,75.3734131    15.6850586,79.1824341 23.8092651,79.1824341 23.8092651,75.3734131 23.8092651,58.9157104 24.824646,58.9157104    51.6471558,58.9157104 77.5939941,58.9157104 79.578125,58.9157104 79.578125,75.3734131 79.578125,79.1824341    87.6351929,79.1824341 87.6351929,75.3734131  " fill="#ffffff" data-fill-palette-color="quaternary"></polygon><polygon points="74.4656372,66.3009033 74.4656372,63.932251 28.8546753,63.932251 28.8546753,66.3009033 28.8546753,90.2185669    25.4189453,90.2185669 25.4189453,94 28.8546753,94 74.4656372,94 77.9013672,94 77.9013672,90.2185669 74.4656372,90.2185669  " fill="#ffffff" data-fill-palette-color="quaternary"></polygon></g></svg></g></svg></g><g></g></svg></g></svg></g></svg></g></svg></g><defs></defs></svg><rect width="333.90454557049503" height="333.90454557049503" fill="none" stroke="none" visibility="hidden"></rect></g></svg></g></svg>